/* XPM */
static char * mzdasoftlogoWindowsIcon_xpm[] = {
"32 32 456 2",
"  	c None",
". 	c #FFFFFF",
"+ 	c #FBFBFB",
"@ 	c #F7F7F7",
"# 	c #F5F5F5",
"$ 	c #F3F1F1",
"% 	c #EFEAEA",
"& 	c #E7DBDB",
"* 	c #D3B0B0",
"= 	c #B37C7C",
"- 	c #BDA1A1",
"; 	c #F6F5F5",
"> 	c #F3F2F2",
", 	c #F2ECEC",
"' 	c #EFE4E4",
") 	c #E4CFCF",
"! 	c #C89696",
"~ 	c #CFACAC",
"{ 	c #AE7979",
"] 	c #F4F3F3",
"^ 	c #F7F5F5",
"/ 	c #F4EFEF",
"( 	c #F2E8E8",
"_ 	c #ECDCDC",
": 	c #E5CFCE",
"< 	c #D6B2B0",
"[ 	c #C58E8A",
"} 	c #E5DFE0",
"| 	c #B79090",
"1 	c #D6C8C8",
"2 	c #FCFBFA",
"3 	c #F5F2F1",
"4 	c #F1EAE9",
"5 	c #F1E4E1",
"6 	c #EDD0CA",
"7 	c #E5B6AE",
"8 	c #D49E94",
"9 	c #DCC4C4",
"0 	c #CC9B9B",
"a 	c #D1A9A9",
"b 	c #FBFAF9",
"c 	c #F9F5F3",
"d 	c #F9F1EF",
"e 	c #F6EDE9",
"f 	c #EEE3DF",
"g 	c #DCC0B8",
"h 	c #D3ADA5",
"i 	c #F1E8E8",
"j 	c #E3C2C2",
"k 	c #CFA2A2",
"l 	c #EDECEB",
"m 	c #E6E3E1",
"n 	c #E5DDDA",
"o 	c #E2D5CF",
"p 	c #D9C6BB",
"q 	c #CD9984",
"r 	c #DFC9C4",
"s 	c #F1E4E4",
"t 	c #E0C6C7",
"u 	c #C29192",
"v 	c #FDFCFD",
"w 	c #FAF9F9",
"x 	c #F6F3F0",
"y 	c #F5F0EB",
"z 	c #EFE8DE",
"A 	c #D6C09B",
"B 	c #E8DDD1",
"C 	c #F4E8E1",
"D 	c #ECD3C8",
"E 	c #CC8F77",
"F 	c #FFFEFE",
"G 	c #FCFDFD",
"H 	c #F4F5F4",
"I 	c #F1EFED",
"J 	c #DDD5CA",
"K 	c #C5A777",
"L 	c #EDE8EB",
"M 	c #EBDEDA",
"N 	c #E1D1CA",
"O 	c #CCB4AA",
"P 	c #E9DAD4",
"Q 	c #F6F4F1",
"R 	c #EFE9E2",
"S 	c #ECE4D7",
"T 	c #E7DBC4",
"U 	c #DFCBA7",
"V 	c #CDB48B",
"W 	c #FEFFFF",
"X 	c #F8F8F7",
"Y 	c #F3F2F1",
"Z 	c #E5D3CB",
"` 	c #DAC6BD",
" .	c #F9F9F7",
"..	c #F8F6F1",
"+.	c #F6F1EA",
"@.	c #EEE8DB",
"#.	c #DDD7B8",
"$.	c #D5D1B4",
"%.	c #F8F4F4",
"&.	c #F5EDEB",
"*.	c #F0E5E0",
"=.	c #E1C7B8",
"-.	c #C7A58F",
";.	c #FDFDFC",
">.	c #F7F6F5",
",.	c #EEEEEB",
"'.	c #DCE1CD",
").	c #DCE4BD",
"!.	c #F6F3EF",
"~.	c #F1EFE1",
"{.	c #EDEAD2",
"].	c #E4E0BB",
"^.	c #C8C184",
"/.	c #FEFEFF",
"(.	c #F9F9F9",
"_.	c #F8F8F8",
":.	c #EAEDE3",
"<.	c #D8E3B1",
"[.	c #E4E7D9",
"}.	c #ECECEC",
"|.	c #EBEBE9",
"1.	c #E2E2DA",
"2.	c #D8D5BF",
"3.	c #C9C296",
"4.	c #FBFAF8",
"5.	c #F9FCF6",
"6.	c #F7FBED",
"7.	c #F6FAE4",
"8.	c #F0F9D1",
"9.	c #DEF297",
"0.	c #F2F6E7",
"a.	c #FCFDF9",
"b.	c #FBFBF6",
"c.	c #F9F9F2",
"d.	c #E7E5D2",
"e.	c #D2CA92",
"f.	c #F9F9F5",
"g.	c #F6F8F7",
"h.	c #F0F5F3",
"i.	c #EAF2F0",
"j.	c #DBE8E4",
"k.	c #C3D8BC",
"l.	c #EBEAE4",
"m.	c #F1EEED",
"n.	c #F1EEEA",
"o.	c #EFECE4",
"p.	c #EBE8D8",
"q.	c #D2CFA4",
"r.	c #F8F7F1",
"s.	c #FEFFFE",
"t.	c #F3F3F3",
"u.	c #E3E3E5",
"v.	c #DBE4E2",
"w.	c #C0E1D6",
"x.	c #8DE2C4",
"y.	c #E8FBEB",
"z.	c #EFFDEA",
"A.	c #EAFDE3",
"B.	c #E5FDD8",
"C.	c #D9FCC2",
"D.	c #C1FB99",
"E.	c #E7F7DD",
"F.	c #F6F6F7",
"G.	c #F1F6F5",
"H.	c #E6F5EF",
"I.	c #C0F3E0",
"J.	c #80E0BF",
"K.	c #FEFEFD",
"L.	c #FCFDFB",
"M.	c #FBFDFA",
"N.	c #FAFEF8",
"O.	c #F7FDF3",
"P.	c #E8FCDA",
"Q.	c #D8EEC9",
"R.	c #F5F4F4",
"S.	c #EFEDEE",
"T.	c #D7E3E0",
"U.	c #B1DBC5",
"V.	c #F7F5DC",
"W.	c #EEECD6",
"X.	c #FEFEFE",
"Y.	c #FBFEFB",
"Z.	c #F7FDF4",
"`.	c #E5FDD6",
" +	c #C9EEAE",
".+	c #EBF3EF",
"++	c #E0EFE7",
"@+	c #CCEADE",
"#+	c #9FE9CF",
"$+	c #BAD5CB",
"%+	c #D4D5BB",
"&+	c #E3E1C8",
"*+	c #D1D5A7",
"=+	c #F4FEF0",
"-+	c #EEFCE6",
";+	c #E3FCD3",
">+	c #BFEDA0",
",+	c #FFFEFF",
"'+	c #EAEDEC",
")+	c #E0E8E3",
"!+	c #D0E2DB",
"~+	c #ABD1D1",
"{+	c #BCDFA8",
"]+	c #F3F5EC",
"^+	c #F3F3F1",
"/+	c #D9DDBE",
"(+	c #F4F5ED",
"_+	c #F4F6F5",
":+	c #CBDBDA",
"<+	c #81CEC6",
"[+	c #EEF5F6",
"}+	c #FCFCFC",
"|+	c #FCFAFA",
"1+	c #C5F1F1",
"2+	c #F7F9F7",
"3+	c #F2F4F2",
"4+	c #D8E5D7",
"5+	c #93C9BD",
"6+	c #CFE9A4",
"7+	c #FAF9FD",
"8+	c #ECEEEA",
"9+	c #DEEBC9",
"0+	c #CBDFAB",
"a+	c #E9F0F4",
"b+	c #D5E6E6",
"c+	c #9FCFCC",
"d+	c #D8E6E5",
"e+	c #F4F7F7",
"f+	c #F2F7F6",
"g+	c #EFF4F5",
"h+	c #E9F1F2",
"i+	c #DBECEE",
"j+	c #B9D4D6",
"k+	c #CEE9EB",
"l+	c #E4E7EC",
"m+	c #A5CFDB",
"n+	c #F1F9F1",
"o+	c #E8F6EA",
"p+	c #D0EBDE",
"q+	c #9AD6C2",
"r+	c #D7F5D7",
"s+	c #E2FBE1",
"t+	c #DCFCDB",
"u+	c #D1FBD0",
"v+	c #AFF0A0",
"w+	c #EBF4F1",
"x+	c #EAF1F1",
"y+	c #D9E6E5",
"z+	c #C9E0DE",
"A+	c #EEF3F2",
"B+	c #EAF1F2",
"C+	c #E3EEF1",
"D+	c #D2E4E9",
"E+	c #91C6D3",
"F+	c #F3F6F8",
"G+	c #F9FAFA",
"H+	c #F1F6F8",
"I+	c #DEEEF0",
"J+	c #99CDCC",
"K+	c #F9F8F9",
"L+	c #F7F7F9",
"M+	c #F4F5F8",
"N+	c #E9F0F0",
"O+	c #CAECD3",
"P+	c #C7E2D3",
"Q+	c #D6E4EB",
"R+	c #B7D3DD",
"S+	c #B9D4DB",
"T+	c #F4F7F9",
"U+	c #C7E1ED",
"V+	c #D0E1E8",
"W+	c #F2F4F7",
"X+	c #DFE4EF",
"Y+	c #B1C1DD",
"Z+	c #85A4C5",
"`+	c #F5FAF6",
" @	c #F1FBF5",
".@	c #E6F7EE",
"+@	c #CFF1E0",
"@@	c #B1E9CF",
"#@	c #ECEDF1",
"$@	c #C8D6E3",
"%@	c #9DBCD4",
"&@	c #F4F7FA",
"*@	c #E8F0F6",
"=@	c #D6E6F3",
"-@	c #97BFE1",
";@	c #F2F2F3",
">@	c #DBDFE0",
",@	c #94B0C4",
"'@	c #92B7C3",
")@	c #FCFFFD",
"!@	c #F7FBF9",
"~@	c #F5FAF9",
"{@	c #E7F3F2",
"]@	c #AAE6D3",
"^@	c #DFE5F0",
"/@	c #B5CBDE",
"(@	c #7AA4C3",
"_@	c #FEFDFC",
":@	c #EBECF3",
"<@	c #B5C8E7",
"[@	c #BFCDDD",
"}@	c #F9FBFD",
"|@	c #FBFCFD",
"1@	c #CEDEE0",
"2@	c #9BB9C2",
"3@	c #56839B",
"4@	c #BBC7CD",
"5@	c #F0F0F0",
"6@	c #F0F0F1",
"7@	c #F1F0F0",
"8@	c #E8EAE9",
"9@	c #BEDEDC",
"0@	c #ACD3D2",
"a@	c #E4E4EA",
"b@	c #A3ACD4",
"c@	c #CACDDE",
"d@	c #C7CBDB",
"e@	c #6C7CB5",
"f@	c #DAE5F5",
"g@	c #BED0F1",
"h@	c #9EBBEE",
"i@	c #7C9FDC",
"j@	c #D9DFEA",
"k@	c #C8D4E9",
"l@	c #E5E7EC",
"m@	c #AEB4C4",
"n@	c #3F547A",
"o@	c #FDFEFC",
"p@	c #FBFCFC",
"q@	c #F2F4F5",
"r@	c #EDF2F3",
"s@	c #E7EDF2",
"t@	c #D7E4EB",
"u@	c #9FC9D6",
"v@	c #D2D4E8",
"w@	c #A5A8D4",
"x@	c #575CB1",
"y@	c #6667B3",
"z@	c #A0A7CF",
"A@	c #E6E8F2",
"B@	c #CBD2EC",
"C@	c #9EADDE",
"D@	c #DCDEEA",
"E@	c #A2A9D0",
"F@	c #7484B0",
"G@	c #F6F9FA",
"H@	c #F4F8FA",
"I@	c #D9E5EC",
"J@	c #A6CDDE",
"K@	c #BBC8E1",
"L@	c #AEB4DC",
"M@	c #6E73C3",
"N@	c #6C75C5",
"O@	c #CFD2E8",
"P@	c #C7CBE8",
"Q@	c #878DDC",
"R@	c #E9E9F0",
"S@	c #B9C2E7",
"T@	c #6B82D3",
"U@	c #B1C1DA",
"V@	c #FEFDFB",
"W@	c #E2EBEF",
"X@	c #F7F1EF",
"Y@	c #EEF1F3",
"Z@	c #E6EDF0",
"`@	c #C3D6E7",
" #	c #89A7CD",
".#	c #D3D1F2",
"+#	c #8787DA",
"@#	c #6F6FC1",
"##	c #C5C5F2",
"$#	c #9A9AE7",
"%#	c #BCBCDD",
"&#	c #A3A6C9",
"*#	c #404B9E",
"=#	c #D6DDE6",
"-#	c #ECF1F5",
";#	c #D3E3EC",
">#	c #99C4DC",
",#	c #B4D4EA",
"'#	c #95C4E5",
")#	c #B4C9E2",
"!#	c #D9DDF0",
"~#	c #B7C1E4",
"{#	c #7890D7",
"]#	c #8185CF",
"^#	c #9191C9",
"/#	c #D6D6ED",
"(#	c #CACAEB",
"_#	c #8989D3",
":#	c #F4F4F9",
"<#	c #EAEAF5",
"[#	c #BDBDE9",
"}#	c #9292D2",
"|#	c #DBDBE9",
"1#	c #8085C0",
"2#	c #505DA7",
"3#	c #CED8E6",
"4#	c #C1D3E7",
"5#	c #94B9E0",
"6#	c #DBE4EC",
"7#	c #EDF1F4",
"8#	c #DCE8F2",
"9#	c #AACCEC",
"0#	c #CFD7E5",
"a#	c #DBDEED",
"b#	c #B9C2E5",
"c#	c #8B93D3",
"d#	c #8383CA",
"e#	c #CDCDE7",
"f#	c #8E8ED3",
"g#	c #CACAE0",
"h#	c #DDDDEE",
"i#	c #A5A5DE",
"j#	c #8686D1",
"k#	c #8890D5",
"l#	c #8599D0",
"m#	c #DFE8F5",
"n#	c #C1D2EE",
"o#	c #8FABD5",
"p#	c #FAF9F8",
"q#	c #F4F4F4",
"r#	c #EEEFF2",
"s#	c #D5DCE8",
"t#	c #9DB5DE",
"u#	c #CDD1E8",
"v#	c #B1B7E1",
"w#	c #6F7BC9",
"x#	c #DBDAEC",
"y#	c #AEAEDE",
"z#	c #A3A3CF",
"A#	c #CACAE8",
"B#	c #A3A3D7",
"C#	c #9C9CC8",
"D#	c #97A1E7",
"E#	c #BAC3E7",
"F#	c #BCC6E6",
"G#	c #8A9DD9",
"H#	c #E7E8EC",
"I#	c #F3F3F5",
"J#	c #EEEFF4",
"K#	c #E7EAF2",
"L#	c #DFE2EF",
"M#	c #BEC6E9",
"N#	c #97A1DD",
"O#	c #D5D5EE",
"P#	c #B1B1E5",
"Q#	c #7878CD",
"R#	c #A2A2D0",
"S#	c #C4C4E4",
"T#	c #8888CC",
"U#	c #ACACD3",
"V#	c #FFFFFE",
"W#	c #F7F7FB",
". . . . . + @ # $ % & * = - . . . . . . . . . . . . . . . . . . ",
". . . . . + ; > , ' ) ! ~ { ] . . . . . . . . . . . . . . . . . ",
". . . . . ^ / ( _ : < [ } | 1 . . . . . . . . . . . . . . . . . ",
". . . . . 2 3 4 5 6 7 8 9 0 a . . . . . . . . . . . . . . . . . ",
". . . . . b c d e f g h i j k . . . . . . . . . . . . . . . . . ",
". . . . . l m n o p q r s t u . . . . . . . . . . . . . . . . . ",
". . . . . v w x y z A B C D E . F . . . . . . . . . . . . . . . ",
". . . . . G @ H I J K L M N O P . . . . . . . . . . . . . . . . ",
". . . . . Q R S T U V W X Y Z ` . . . . . . . . . . . . . . . . ",
". . . . .  ...+.@.#.$.%.&.*.=.-.. . . . . . . . . . . . . . . . ",
". . . . . ;.>.Y ,.'.).!.~.{.].^./.. . . . . . . . . . . . . . . ",
". . . . . (.@ _.:.<.[.}.|.1.2.3.4.. . . . . . . . . . . . . . . ",
". . . . . 5.6.7.8.9.0.a.b.c.d.e.f.. . . . . . . . . . . . . . . ",
". . . . . g.h.i.j.k.l.m.n.o.p.q.r.s.. . . . . . . . . . . . . . ",
". . . . . t.u.v.w.x.y.z.A.B.C.D.E.. . . . . . . . . . . . . . . ",
". . . . . F.G.H.I.J.K.L.M.N.O.P.Q.. . . . . . . . . . . . . . . ",
". . . . . @ R.S.T.U.V.W.X.Y.Z.`. +. . . . . . . . . . . . . . . ",
". . . . . .+++@+#+$+%+&+*+=+-+;+>+,+. . . . . . . . W . . . . . ",
". . . . . '+)+!+~+{+]+^+/+(+_+:+<+[+. . X.}++ |+R.1+. . . . . . ",
". . . . . 2+3+4+5+6+7+8+9+0+a+b+c+d+e+f+g+h+i+j+k+l+m+. . . . . ",
". . . . . n+o+p+q+r+s+t+u+v+w+x+y+z+A+B+C+D+E+F+/.,+. . . . . . ",
". . . . . G+H+I+J+K+L+M+N+O+P+Q+R+S+G G T+U+V+. . . . . . . . . ",
". . . . . W+X+Y+Z+M.`+ @.@+@@@#@$@%@&@*@=@-@X.X.. . . . . . . . ",
". . . . . ;@>@,@'@)@G !@~@{@]@^@/@(@_@:@<@[@. . . }@|@. . . . . ",
". . . . . 1@2@3@4@5@6@6@7@8@9@0@a@b@c@d@e@f@g@h@i@j@k@. . . . . ",
". . . . . l@m@n@o@X.p@q@r@s@t@u@v@w@x@y@z@A@B@C@+ . . . . . . . ",
". . . . . D@E@F@. p@p@G G@H@I@J@K@L@M@N@O@P@Q@R@X.. . . . . . . ",
". . . . . S@T@U@. }+V@W@X@Y@Z@`@ #.#+#@###$#%#. . . . . . . . . ",
". . . . . &#*#=#-#;#>#,#'#)#!#~#{#]#^#/#(#_#:#<#[#}#|#. . . . . ",
". . . . . 1#2#3#4#5#6#7#8#9#0#a#b#c#d#e#f#g#h#i#j#. . . . . . . ",
". . . . . k#l#m#n#o#p#q#r#s#t#u#v#w#x#y#z#A#B#C#. . . . . . . . ",
". . . . . D#E#F#G#H#I#J#K#L#M#N#O#P#Q#R#S#T#U#V#X.X.W#. . . . . "};
